<svg class="lt" width="1629" height="675" viewBox="0 0 1629 675" xmlns="http://www.w3.org/2000/svg" aria-hidden="true" focusable="false">
	<path fill="#FFFBF5" fill-rule="evenodd" d="M 1136.418 13.513 C 1124.008 15.786, 1107.495 23.903, 1095.386 33.681 C 1076.705 48.766, 1019.066 101.765, 993.988 126.915 C 956.620 164.389, 944.111 179.463, 903.780 235.614 C 876.745 273.253, 866.028 285.368, 835 313.365 C 827.410 320.213, 828.276 319.913, 840.500 311.456 C 867.812 292.562, 888.323 270.608, 932.484 213 C 957.295 180.633, 979.707 155.285, 1012.498 122.500 C 1039.534 95.469, 1094.234 42.351, 1102.353 35.244 C 1115.114 24.074, 1137.087 15.207, 1154.500 14.200 C 1162.870 13.716, 1163.848 13.499, 1160.500 12.869 C 1154.634 11.764, 1144.489 12.035, 1136.418 13.513 M 1198.233 17.106 C 1178.490 19.398, 1156.821 25.953, 1143.500 33.663 C 1127.900 42.691, 1121.025 48.634, 1061.500 104.536 C 995.671 166.359, 966.852 199.483, 924.504 262 C 884.454 321.124, 860.617 349.689, 841.205 361.817 C 838.843 363.293, 835.918 365.273, 834.705 366.217 L 832.500 367.933 835.023 367.967 C 841.252 368.049, 860.947 352.761, 875.089 336.866 C 879.223 332.219, 892.461 315.386, 904.508 299.459 C 975.326 205.827, 1000.409 177.235, 1064.893 116.639 C 1085.459 97.312, 1108.634 75.507, 1116.393 68.181 C 1145.375 40.820, 1158.667 33.378, 1190 26.970 C 1206.830 23.529, 1217.264 24.326, 1228.638 29.923 C 1236.745 33.913, 1238.874 35.656, 1253.628 50.392 C 1274.911 71.648, 1282.558 83.815, 1292.521 112.282 C 1297.161 125.538, 1298.678 127.054, 1295.506 115.267 C 1286.798 82.904, 1276.105 63.457, 1255.024 41.645 C 1236.050 22.013, 1219.090 14.684, 1198.233 17.106 M 1301.635 143.577 C 1304.027 160.181, 1310.146 180.667, 1325.955 225 C 1332.315 242.836, 1337.985 262.237, 1345.918 293.308 C 1361.108 352.803, 1383.898 418.009, 1402.285 454.582 C 1407.805 465.560, 1415.827 477.499, 1425.571 489.236 C 1429.560 494.041, 1433.027 498.541, 1433.275 499.236 C 1433.523 499.931, 1434.088 500.162, 1434.530 499.750 C 1434.972 499.337, 1433.987 497.312, 1432.340 495.250 C 1413.100 471.153, 1399.891 441.533, 1381.124 380.403 C 1374.751 359.646, 1371.165 346.721, 1354.794 285.500 C 1346.838 255.750, 1337.390 229.089, 1319.533 186 C 1315.544 176.375, 1310.340 162.875, 1307.969 156 C 1303.061 141.772, 1300.711 137.162, 1301.635 143.577 M 1204.665 153.250 C 1193.041 168.754, 1185.736 207.857, 1188.926 237.500 C 1192.467 270.410, 1204.844 305.357, 1222.217 331.500 C 1234.027 349.273, 1246.932 367.283, 1258.044 381.500 C 1283.120 413.586, 1310.158 453.879, 1324.098 479.939 C 1328.563 488.287, 1332.430 494.904, 1332.689 494.644 C 1332.949 494.384, 1332.705 493.318, 1332.147 492.276 C 1331.589 491.233, 1329.797 486.582, 1328.164 481.940 C 1318.609 454.772, 1287.104 402.098, 1254.923 359.487 C 1223.155 317.424, 1211.910 296.019, 1202.105 258.951 C 1196.653 238.337, 1195.716 230.101, 1196.276 207.659 C 1196.837 185.113, 1200.487 166.766, 1206.920 154.157 C 1209.444 149.210, 1208.100 148.669, 1204.665 153.250 M 1179.292 213.081 C 1167.554 234.311, 1160.134 251.383, 1146.511 288.500 C 1136.477 315.840, 1127.718 336.226, 1116.447 358.473 C 1107.425 376.281, 1101.465 386.584, 1076.613 427.334 C 1069.624 438.793, 1058.461 458.143, 1051.806 470.334 C 1019.974 528.643, 1002.513 546.380, 959 564.611 C 952.034 567.530, 954.986 567.636, 965.432 564.842 C 1003.604 554.633, 1026.902 533.639, 1053.509 485.473 C 1065.437 463.881, 1071.292 454.135, 1085.335 432.500 C 1122.077 375.896, 1139.308 340.395, 1155.482 287.976 C 1165.720 254.794, 1171.572 238.079, 1178.637 221.835 C 1186.314 204.185, 1186.643 199.787, 1179.292 213.081 M 1173.003 257.750 C 1173.011 267.460, 1178.752 292.273, 1183.850 304.637 C 1191.702 323.679, 1215.104 357.525, 1245.983 394.500 C 1262.526 414.308, 1270.854 425.466, 1279.201 439 C 1287.513 452.477, 1300.332 476.349, 1301.999 481.454 C 1304.076 487.816, 1302.674 509.274, 1299.416 521 C 1293.221 543.291, 1297.557 558.690, 1312.493 567.443 C 1318.480 570.952, 1318.839 570.671, 1314.504 565.872 C 1306.579 557.100, 1306.500 556.644, 1306.500 519.500 L 1306.500 486.500 1302.175 474.544 C 1289.859 440.496, 1264.500 400.797, 1219.106 344.500 C 1193.245 312.429, 1186.528 299.361, 1175.539 259.750 C 1173.684 253.061, 1172.999 252.521, 1173.003 257.750 M 459.500 296.052 C 437.516 298.977, 415.138 312.211, 381.123 342.402 C 374.865 347.956, 365.768 355.875, 360.906 360 C 356.045 364.125, 348.560 370.650, 344.273 374.500 C 339.987 378.350, 334.494 383.185, 332.067 385.244 C 324.352 391.789, 328.272 390.239, 338.569 382.672 C 344.031 378.659, 353.225 372.223, 359 368.371 C 364.775 364.520, 377.856 354.839, 388.069 346.859 C 438.614 307.364, 459.323 300.464, 496.500 310.732 C 524.923 318.583, 537.911 318.935, 564 312.564 C 579.979 308.662, 596.689 306.561, 603.858 307.552 C 619.206 309.673, 634.121 312.309, 645.500 314.912 C 683.124 323.519, 693.545 324.797, 736 326.012 C 753.325 326.508, 772.450 327.437, 778.500 328.076 C 790.637 329.359, 821.615 328.785, 823.152 327.248 C 823.754 326.646, 820.502 326.077, 814.302 325.699 C 808.911 325.370, 797.750 323.947, 789.500 322.536 C 768.408 318.929, 752.578 318.028, 721.500 318.664 C 682.113 319.469, 660.790 316.549, 639.500 307.436 C 617.138 297.864, 591.533 295.754, 567.500 301.503 C 537.065 308.784, 526.540 308.793, 501.500 301.556 C 488.487 297.795, 469.697 294.406, 466 295.153 C 465.725 295.208, 462.800 295.613, 459.500 296.052 M 105.500 353.706 C 87.089 374.009, 84.776 375.459, 66.101 378.398 C 44.991 381.720, 32.968 387.871, 20.132 401.916 C 15.565 406.912, 12.115 411, 12.464 411 C 12.814 411, 17.642 407.604, 23.193 403.452 C 39.794 391.039, 50.322 386.669, 72.372 383.037 C 85.174 380.929, 93.967 374.676, 109.340 356.750 C 116.123 348.841, 117.835 348.455, 123.729 353.500 C 128.769 357.814, 129.644 357.911, 127.307 353.898 C 124.399 348.906, 120.308 346.001, 116.173 345.993 C 112.861 345.987, 111.813 346.744, 105.500 353.706 M 188 356 C 186.833 356.754, 187.118 356.973, 189.282 356.985 C 200.115 357.044, 204.769 364.045, 207.572 384.500 C 209.364 397.573, 211.130 403.442, 214.495 407.500 L 216.983 410.500 214.861 405.561 C 213.434 402.239, 212.424 396.839, 211.775 389.061 C 210.433 372.969, 209.342 367.930, 206.090 362.803 C 201.976 356.316, 192.832 352.877, 188 356 M 308.500 402.519 C 290.066 411.333, 262.823 417.322, 240.680 417.429 C 225.880 417.500, 225.865 417.502, 229.680 419.197 C 250.114 428.277, 288.766 421.483, 311.170 404.874 C 320.849 397.698, 320.052 396.995, 308.500 402.519 M 195.096 422.653 C 194.523 424.769, 193.148 430.325, 192.041 435 C 189.525 445.625, 182.694 459.547, 175.921 467.855 C 172.186 472.436, 171.404 473.858, 173.120 472.949 C 185.857 466.202, 194.009 451.035, 195.959 430.452 C 197.052 418.912, 196.779 416.442, 195.096 422.653 M 279.583 455.654 C 264.241 462.084, 252.753 475.096, 249.425 489.811 C 244.627 511.030, 251.262 532.058, 268.339 549.749 C 272.187 553.736, 275.485 556.849, 275.666 556.667 C 275.848 556.485, 273.992 552.818, 271.541 548.517 C 260.623 529.359, 255.983 515.690, 255.920 502.500 C 255.837 485.330, 262.319 473.237, 278.816 459.782 C 283.390 456.052, 286.765 453.039, 286.316 453.087 C 285.867 453.135, 282.837 454.290, 279.583 455.654 M 386.500 468.565 C 396.070 477.814, 399.687 480.646, 400.671 479.662 C 401.706 478.627, 386.758 464.633, 382 462.183 C 377.785 460.013, 378.070 460.417, 386.500 468.565 M 379.500 474.616 C 418.891 498.298, 442.357 506.598, 540 531.388 C 562.825 537.183, 586.225 543.288, 592 544.956 C 597.775 546.623, 602.950 547.969, 603.500 547.946 C 605.608 547.857, 592.496 541.789, 575.700 535.080 C 547.675 523.885, 548.022 523.991, 489 508.531 C 430.865 493.302, 416.097 488.477, 386.313 474.978 C 367.095 466.269, 365.471 466.182, 379.500 474.616 M 1430 472.755 C 1430 474.608, 1441.799 486.778, 1449.707 493.082 C 1453.670 496.242, 1462.895 502.104, 1470.207 506.108 C 1477.518 510.113, 1487.125 515.481, 1491.555 518.037 C 1507.545 527.261, 1531.031 536.840, 1530.991 534.121 C 1530.958 531.912, 1501.468 514.487, 1469 497.490 C 1446.121 485.513, 1441.803 482.795, 1434.250 475.621 C 1431.912 473.400, 1430 472.111, 1430 472.755 M 149.637 492.629 C 148.326 502.197, 139.515 513.913, 128.264 521.048 C 122.850 524.481, 121.560 524.594, 114.216 522.279 C 105.342 519.482, 103.130 512.935, 108.379 505.003 C 111.882 499.711, 111.222 498.845, 107.188 503.439 C 102.119 509.212, 100.883 519.764, 104.754 524.214 C 107.369 527.220, 114.456 529.293, 120.429 528.797 C 133.883 527.682, 151.196 509.312, 151.816 495.494 C 152.126 488.585, 150.487 486.429, 149.637 492.629 M 662.500 492.552 C 649.916 494.928, 622.565 501.725, 610.500 505.474 C 581.500 514.487, 565.696 518.972, 557 520.658 C 548.301 522.345, 547.879 522.528, 552 522.833 C 558.152 523.289, 567.384 521.730, 595.500 515.491 C 662.684 500.581, 679.258 499.071, 704.755 505.539 C 727.349 511.270, 733.119 514.061, 756 530.328 C 769.953 540.248, 780.267 545.802, 791.622 549.508 C 795.820 550.879, 799.515 552, 799.832 552 C 800.149 552, 797.279 550.069, 793.454 547.708 C 789.629 545.348, 779.750 538.001, 771.500 531.382 C 745.217 510.295, 732.797 502.735, 715.137 497.074 C 698.675 491.797, 676.561 489.897, 662.500 492.552 M 1335.745 504.500 C 1337.423 513.393, 1336.302 532.045, 1333.071 549 C 1329.677 566.814, 1328.958 580.299, 1331.061 586.705 C 1335.145 599.143, 1345.188 606.276, 1360 607.259 C 1366.019 607.658, 1366.809 607.562, 1364 606.773 C 1339.855 599.989, 1334.516 587.694, 1340.508 552.672 C 1344.403 529.905, 1343.948 518.466, 1338.730 508 C 1335.483 501.487, 1335.090 501.027, 1335.745 504.500 M 1451.981 511.580 C 1454.971 513.549, 1460.136 517.311, 1463.459 519.940 C 1473.925 528.221, 1523.287 555.719, 1543.473 564.514 C 1561.111 572.198, 1568.383 574.438, 1587.184 577.974 C 1611.371 582.523, 1612.375 582.083, 1591.463 576.095 C 1569.282 569.745, 1541.915 557.073, 1514.512 540.464 C 1496.919 529.801, 1472.525 517.273, 1458.376 511.635 C 1446.867 507.049, 1445.079 507.034, 1451.981 511.580 M 192.977 511.459 C 187.564 512.823, 173.496 519.389, 172.487 521.022 C 172.206 521.477, 173.668 521.251, 175.738 520.521 C 180.962 518.677, 197.463 516.979, 210.040 516.990 C 221.932 517.001, 229.402 518.597, 238.458 523.062 L 244.500 526.041 239.690 521.553 C 230.907 513.360, 223.474 510.536, 210.022 510.283 C 202.778 510.147, 196.449 510.583, 192.977 511.459 M 1530.121 536.902 C 1534.025 539.438, 1548.784 544.067, 1561.946 546.884 C 1584.072 551.620, 1587.488 554.263, 1581.012 561.639 C 1576.834 566.397, 1577.646 566.727, 1583.796 562.771 C 1589.568 559.058, 1591.697 554.964, 1590.075 550.696 C 1588.020 545.291, 1580.146 542.943, 1557.500 540.981 C 1545.913 539.978, 1536.419 538.400, 1530.500 536.493 C 1528.822 535.953, 1528.761 536.019, 1530.121 536.902 M 630 547.695 C 628.075 547.901, 620.474 548.954, 613.108 550.035 C 605.743 551.116, 598.318 552.003, 596.608 552.006 C 591.548 552.015, 585.585 553.985, 586.835 555.235 C 587.601 556.001, 595.747 555.932, 615.215 554.996 C 658.237 552.926, 677.629 554.119, 730.500 562.090 C 780.362 569.607, 803.373 571.339, 846.500 570.823 C 874.663 570.486, 887.555 571.208, 894.428 573.506 C 898.314 574.806, 912.422 577.566, 927.521 579.981 C 939.853 581.953, 958.222 582.639, 978.097 581.870 C 993.247 581.283, 998.717 581.424, 1003.418 582.520 C 1011.184 584.332, 1011.465 583.818, 1004.461 580.611 C 993.585 575.632, 989.788 575.026, 963.033 574.001 C 948.989 573.463, 928.499 572.145, 917.499 571.072 C 906.500 569.998, 891.425 568.622, 884 568.015 C 876.575 567.407, 863.975 566.257, 856 565.459 C 848.025 564.661, 829.800 563.106, 815.500 562.003 C 782.699 559.473, 777.718 558.927, 737.500 553.456 C 719.350 550.987, 698.425 548.528, 691 547.992 C 678.284 547.074, 637.645 546.876, 630 547.695 M 281 561.044 C 288.724 568.068, 312.205 582.128, 313.707 580.627 C 313.926 580.407, 308.794 577.193, 302.303 573.485 C 295.811 569.776, 287.575 564.743, 284 562.301 C 278.917 558.829, 278.263 558.555, 281 561.044 M 322 585.118 C 332.984 592.030, 354.780 599.921, 374.500 604.126 C 395.783 608.664, 425.194 611.594, 479 614.536 C 485.325 614.882, 497.250 615.817, 505.500 616.613 C 513.750 617.410, 525.450 618.480, 531.500 618.992 C 545.227 620.154, 571.691 622.728, 579 623.614 C 582.025 623.980, 584.268 624.023, 583.985 623.709 C 582.254 621.786, 527.496 612.504, 491.500 608.031 C 468.149 605.130, 457.898 604.135, 409 600.026 C 379.838 597.575, 360.044 594.292, 340 588.582 C 331.475 586.153, 323.150 583.885, 321.500 583.541 L 318.500 582.916 322 585.118 M 1613.293 593.845 C 1609.538 601.772, 1609.313 604.154, 1612.757 599.500 C 1615.829 595.350, 1617.563 590.466, 1616.253 589.656 C 1615.838 589.400, 1614.506 591.285, 1613.293 593.845 M 1027 593 C 1028.375 594.075, 1030.850 595.591, 1032.500 596.368 C 1034.150 597.145, 1038.005 598.949, 1041.067 600.376 C 1044.129 601.804, 1052.679 606.936, 1060.067 611.780 C 1077.816 623.418, 1076.405 622.626, 1074.824 620.066 C 1073.180 617.405, 1060.566 606.694, 1048.558 597.763 C 1039.801 591.249, 1036.414 589.384, 1039 592.500 C 1040.685 594.530, 1037.081 594.535, 1030.409 592.511 C 1024.163 590.616, 1023.985 590.642, 1027 593 M 1022 605.340 C 1037.416 610.839, 1041.698 612.725, 1058 621.202 C 1066.525 625.635, 1079.507 632.384, 1086.849 636.199 C 1111.263 648.885, 1101.961 641.502, 1071.717 624.187 C 1054.061 614.079, 1044.864 609.966, 1031 605.975 C 1015.915 601.632, 1010.542 601.253, 1022 605.340 M 1423.842 602.987 C 1414.444 603.891, 1404.349 605.752, 1402.065 607.002 C 1401.276 607.433, 1411.401 607.994, 1424.565 608.246 C 1449.380 608.723, 1463.006 610.304, 1496.384 616.578 C 1511.997 619.513, 1532.626 619.965, 1537.398 617.476 C 1541.574 615.299, 1553.315 613.042, 1557.726 613.569 L 1561.500 614.020 1557.500 612.036 C 1552.423 609.518, 1550.780 609.525, 1543.465 612.099 C 1538.734 613.764, 1536.259 614.061, 1531.500 613.536 C 1518.418 612.093, 1483.918 606.931, 1474 604.934 C 1462.120 602.541, 1438.151 601.610, 1423.842 602.987 M 997 613.888 C 997 614.355, 1002.962 616.654, 1010.250 618.995 C 1017.538 621.337, 1028.675 625.399, 1035 628.023 C 1041.325 630.646, 1055.241 636.436, 1065.924 640.890 C 1076.607 645.343, 1085.516 648.818, 1085.722 648.611 C 1086.778 647.556, 1036.703 623.485, 1024.500 619.183 C 1013.370 615.259, 997 612.107, 997 613.888 M 833.500 620.163 C 821.175 620.843, 772.903 622.460, 726 623.764 C 690.507 624.750, 654.938 624.692, 629.926 623.608 C 613.709 622.905, 608.202 622.999, 603.926 624.053 L 598.500 625.390 607.500 627.153 C 652.658 636.001, 728.763 636.514, 799.500 628.446 C 806.650 627.631, 816.550 626.518, 821.500 625.974 C 829.674 625.075, 849.560 622.381, 854.500 621.504 C 855.600 621.309, 858.938 621.115, 861.917 621.074 C 864.896 621.033, 867.116 620.782, 866.849 620.516 C 866.016 619.682, 846.034 619.471, 833.500 620.163 M 889.521 628.139 C 898.438 634.706, 914.464 642.433, 924.477 644.994 C 933.754 647.367, 957.418 649.993, 969.722 650.016 C 977.133 650.030, 982.149 650.963, 1001.933 656.008 C 1022.548 661.265, 1042.798 664.681, 1040.852 662.572 C 1040.495 662.186, 1037.429 661.223, 1034.038 660.432 C 1030.648 659.641, 1023.154 657.415, 1017.386 655.485 C 986.801 645.252, 981.604 644.077, 955.500 641.493 C 946.700 640.622, 935.852 639.252, 931.392 638.449 C 924.202 637.154, 893.568 626.980, 888.184 624.099 C 882.444 621.026, 883.275 623.539, 889.521 628.139 M 980.500 628.885 C 984.350 629.841, 996.950 634.364, 1008.500 638.937 C 1034.142 649.088, 1033.720 648.957, 1027.160 644.739 C 1009.236 633.213, 992.699 626.946, 980.540 627.074 L 973.500 627.147 980.500 628.885 M 1048.528 650.341 C 1057.055 654.426, 1061.016 655.712, 1067.500 656.500 C 1071.326 656.965, 1069.095 655.927, 1058 652.078 C 1040.926 646.156, 1039.094 645.820, 1048.528 650.341"/>
</svg>
