<svg class="lt lt-draw" width="265" height="395" viewBox="0 0 265 395" preserveAspectRatio="xMidYMid slice" fill="none" stroke="#FFFBF5" stroke-linecap="round" stroke-linejoin="round" xmlns="http://www.w3.org/2000/svg" aria-hidden="true" focusable="false">
	<path pathLength="1" stroke-width="3.6" style="--t:0.00s;--d:1.58s" d="M149 68L142 65L124 65L109 69L88 80L70 97L58 118L51 143L51 161L56 183"/>
	<path pathLength="1" stroke-width="2.17" style="--t:0.03s;--d:1.58s" d="M175 74L181 76L188 81L199 92L209 108L215 133L214 152L212 154"/>
	<path pathLength="1" stroke-width="2.55" style="--t:0.06s;--d:1.58s" d="M178 100L175 97L172 97L160 102L152 110L139 129L125 145"/>
	<path pathLength="1" stroke-width="1.8" style="--t:0.08s;--d:0.64s" d="M127 115L125 119"/>
	<path pathLength="1" stroke-width="2.55" style="--t:0.11s;--d:1.09s" d="M194 110L199 124L202 143"/>
	<path pathLength="1" stroke-width="1.8" style="--t:0.14s;--d:1.14s" d="M136 143L144 140L156 139L166 142L172 145"/>
	<path pathLength="1" stroke-width="3.6" style="--t:0.17s;--d:0.70s" d="M201 144L196 144L188 148"/>
	<path pathLength="1" stroke-width="1.8" style="--t:0.20s;--d:0.81s" d="M210 136L210 149L212 154"/>
	<path pathLength="1" stroke-width="1.8" style="--t:0.23s;--d:1.58s" d="M122 123L108 137L98 144L84 157L78 167L76 177"/>
	<path pathLength="1" stroke-width="1.8" style="--t:0.25s;--d:0.70s" d="M202 145L202 150L199 158"/>
	<path pathLength="1" stroke-width="2.7" style="--t:0.28s;--d:1.01s" d="M140 155L145 159L151 161L158 161L161 159L166 159"/>
	<path pathLength="1" stroke-width="4.02" style="--t:0.31s;--d:1.23s" d="M122 145L101 158L92 165L87 171"/>
	<path pathLength="1" stroke-width="3.07" style="--t:0.34s;--d:1.04s" d="M125 148L115 160L107 165L101 166"/>
	<path pathLength="1" stroke-width="1.8" style="--t:0.37s;--d:0.79s" d="M186 161L197 164L203 164"/>
	<path pathLength="1" stroke-width="1.8" style="--t:0.39s;--d:1.11s" d="M184 153L183 162L190 179L189 186"/>
	<path pathLength="1" stroke-width="3.6" style="--t:0.42s;--d:0.64s" d="M86 172L86 175"/>
	<path pathLength="1" stroke-width="3.07" style="--t:0.45s;--d:0.91s" d="M86 175L95 186L99 188L104 187"/>
	<path pathLength="1" stroke-width="4.02" style="--t:0.48s;--d:1.56s" d="M212 154L217 170L217 185L215 192L200 220"/>
	<path pathLength="1" stroke-width="1.8" style="--t:0.51s;--d:0.64s" d="M181 185L175 186"/>
	<path pathLength="1" stroke-width="1.8" style="--t:0.53s;--d:0.82s" d="M57 184L61 191L62 202"/>
	<path pathLength="1" stroke-width="3.6" style="--t:0.56s;--d:1.27s" d="M86 175L83 178L81 184L80 198L83 210L85 214L89 217"/>
	<path pathLength="1" stroke-width="1.8" style="--t:0.59s;--d:0.64s" d="M176 197L185 198"/>
	<path pathLength="1" stroke-width="1.8" style="--t:0.62s;--d:0.99s" d="M159 203L161 204L174 203L186 205"/>
	<path pathLength="1" stroke-width="5.09" style="--t:0.65s;--d:1.03s" d="M90 188L93 195L93 208L92 214L90 217"/>
	<path pathLength="1" stroke-width="1.8" style="--t:0.68s;--d:1.05s" d="M208 189L200 207L199 219"/>
	<path pathLength="1" stroke-width="1.8" style="--t:0.70s;--d:1.58s" d="M198 168L199 184L197 192L187 214L183 227L177 233L173 235L153 231L123 217L113 207L106 189"/>
	<path pathLength="1" stroke-width="4.02" style="--t:0.73s;--d:1.42s" d="M55 185L53 188L50 201L52 214L58 223L67 232L71 234"/>
	<path pathLength="1" stroke-width="1.8" style="--t:0.76s;--d:0.70s" d="M170 211L172 212L183 211"/>
	<path pathLength="1" stroke-width="6.09" style="--t:0.79s;--d:0.64s" d="M90 218L90 223"/>
	<path pathLength="1" stroke-width="5.4" style="--t:0.82s;--d:0.64s" d="M199 221L200 224"/>
	<path pathLength="1" stroke-width="1.8" style="--t:0.84s;--d:0.64s" d="M199 225L198 226L199 229"/>
	<path pathLength="1" stroke-width="2.7" style="--t:0.87s;--d:0.64s" d="M200 225L201 229"/>
	<path pathLength="1" stroke-width="5.4" style="--t:0.90s;--d:0.64s" d="M89 225L88 230L86 232"/>
	<path pathLength="1" stroke-width="3.45" style="--t:0.93s;--d:0.71s" d="M91 224L101 234"/>
	<path pathLength="1" stroke-width="1.8" style="--t:0.96s;--d:0.64s" d="M201 229L202 232"/>
	<path pathLength="1" stroke-width="3.81" style="--t:0.98s;--d:0.64s" d="M85 232L75 234"/>
	<path pathLength="1" stroke-width="1.8" style="--t:1.01s;--d:0.64s" d="M202 233L205 237L205 240"/>
	<path pathLength="1" stroke-width="1.8" style="--t:1.04s;--d:0.89s" d="M200 234L203 245L202 253L200 255"/>
	<path pathLength="1" stroke-width="1.8" style="--t:1.07s;--d:0.80s" d="M106 240L109 248L108 257"/>
	<path pathLength="1" stroke-width="5.39" style="--t:1.10s;--d:1.49s" d="M86 233L84 241L73 259L47 282"/>
	<path pathLength="1" stroke-width="1.8" style="--t:1.13s;--d:1.38s" d="M154 234L149 239L145 248L138 272L139 284"/>
	<path pathLength="1" stroke-width="2.55" style="--t:1.15s;--d:1.30s" d="M149 259L152 263L160 267L179 271L183 273L190 280"/>
	<path pathLength="1" stroke-width="1.8" style="--t:1.18s;--d:1.19s" d="M108 284L131 290L143 301"/>
	<path pathLength="1" stroke-width="2.7" style="--t:1.21s;--d:1.54s" d="M146 267L145 273L150 288L157 303L170 325L171 329"/>
</svg>